<svg width="18" height="18" viewBox="0 0 18 18" fill="none" xmlns="http://www.w3.org/2000/svg">
<path d="M3.39999 12.2L7.39999 9.8M10.6 8.2L14.6 5.8M8.99999 3.4V7.4M8.99999 10.6V14.6M3.39999 5.8L7.39999 8.2M10.6 9.8L14.6 12.2" stroke="white" stroke-linejoin="round"/>
<path d="M15.8 6.60001V11M10.2 15.8L14.6 13.4M3.00001 13.4L7.80001 15.8M2.20001 11.4V6.60001M3.00001 4.6L7.80001 2.2M15 4.6L10.2 2.2" stroke="white" stroke-linejoin="round"/>
<circle cx="8.99999" cy="2.2" r="1.2" stroke="white" stroke-linejoin="round"/>
<circle cx="8.99999" cy="15.8" r="1.2" stroke="white" stroke-linejoin="round"/>
<circle cx="2.2" cy="5.4" r="1.2" stroke="white" stroke-linejoin="round"/>
<circle cx="15.8" cy="5.4" r="1.2" stroke="white" stroke-linejoin="round"/>
<circle cx="15.8" cy="12.6" r="1.2" stroke="white" stroke-linejoin="round"/>
<circle cx="2.2" cy="12.6" r="1.2" stroke="white" stroke-linejoin="round"/>
<path d="M8.99999 7.2L10.6 8.1V9.9L8.99999 10.8L7.39999 9.9V8.1L8.99999 7.2Z" stroke="white" stroke-linejoin="round"/>
</svg>
