<svg width="32" height="32" viewBox="0 0 32 32" fill="none" xmlns="http://www.w3.org/2000/svg">
<rect x="0.5" y="0.5" width="31" height="31" rx="7.5" stroke="#D1D6DC"/>
<path d="M10 12.6667H12" stroke="#171A1D" stroke-width="1.5" stroke-linecap="round" stroke-linejoin="round"/>
<path d="M10 19.3333H14" stroke="#171A1D" stroke-width="1.5" stroke-linecap="round" stroke-linejoin="round"/>
<path d="M20 19.3333L22 19.3333" stroke="#171A1D" stroke-width="1.5" stroke-linecap="round" stroke-linejoin="round"/>
<path d="M18 12.6667L22 12.6667" stroke="#171A1D" stroke-width="1.5" stroke-linecap="round" stroke-linejoin="round"/>
<path d="M12 12.6667C12 12.0454 12 11.7348 12.1015 11.4897C12.2368 11.163 12.4964 10.9035 12.8231 10.7682C13.0681 10.6667 13.3787 10.6667 14 10.6667C14.6213 10.6667 14.9319 10.6667 15.1769 10.7682C15.5036 10.9035 15.7632 11.163 15.8985 11.4897C16 11.7348 16 12.0454 16 12.6667C16 13.2879 16 13.5985 15.8985 13.8436C15.7632 14.1703 15.5036 14.4298 15.1769 14.5652C14.9319 14.6667 14.6213 14.6667 14 14.6667C13.3787 14.6667 13.0681 14.6667 12.8231 14.5652C12.4964 14.4298 12.2368 14.1703 12.1015 13.8436C12 13.5985 12 13.2879 12 12.6667Z" stroke="#171A1D" stroke-width="1.5"/>
<path d="M16 19.3333C16 18.7121 16 18.4014 16.1015 18.1564C16.2368 17.8297 16.4964 17.5701 16.8231 17.4348C17.0681 17.3333 17.3787 17.3333 18 17.3333C18.6213 17.3333 18.9319 17.3333 19.1769 17.4348C19.5036 17.5701 19.7632 17.8297 19.8985 18.1564C20 18.4014 20 18.7121 20 19.3333C20 19.9546 20 20.2652 19.8985 20.5102C19.7632 20.8369 19.5036 21.0965 19.1769 21.2318C18.9319 21.3333 18.6213 21.3333 18 21.3333C17.3787 21.3333 17.0681 21.3333 16.8231 21.2318C16.4964 21.0965 16.2368 20.8369 16.1015 20.5102C16 20.2652 16 19.9546 16 19.3333Z" stroke="#171A1D" stroke-width="1.5"/>
</svg>
