<svg width="156" height="24" viewBox="0 0 156 24" fill="none" xmlns="http://www.w3.org/2000/svg">
<path fill-rule="evenodd" clip-rule="evenodd" d="M8.5564 9C8.5564 8.58579 8.89218 8.25 9.3064 8.25H15.3064C15.7206 8.25 16.0564 8.58579 16.0564 9V15C16.0564 15.4142 15.7206 15.75 15.3064 15.75H9.3064C8.89218 15.75 8.5564 15.4142 8.5564 15V9ZM10.0564 9.75V14.25H14.5564V9.75H10.0564Z" fill="#9E9E9E"/>
<path fill-rule="evenodd" clip-rule="evenodd" d="M14.5564 15C14.5564 14.5858 14.8922 14.25 15.3064 14.25H18.3064C20.3775 14.25 22.0564 15.9289 22.0564 18C22.0564 20.0711 20.3775 21.75 18.3064 21.75C16.2353 21.75 14.5564 20.0711 14.5564 18V15ZM16.0564 15.75V18C16.0564 19.2426 17.0638 20.25 18.3064 20.25C19.549 20.25 20.5564 19.2426 20.5564 18C20.5564 16.7574 19.549 15.75 18.3064 15.75H16.0564Z" fill="#9E9E9E"/>
<path fill-rule="evenodd" clip-rule="evenodd" d="M6.3064 15.752C5.06376 15.752 4.0564 16.7593 4.0564 18.002C4.0564 19.2446 5.06376 20.252 6.3064 20.252C7.54904 20.252 8.5564 19.2446 8.5564 18.002V15.752H6.3064ZM2.5564 18.002C2.5564 15.9309 4.23533 14.252 6.3064 14.252H9.3064C9.72061 14.252 10.0564 14.5877 10.0564 15.002V18.002C10.0564 20.073 8.37746 21.752 6.3064 21.752C4.23533 21.752 2.5564 20.073 2.5564 18.002Z" fill="#9E9E9E"/>
<path fill-rule="evenodd" clip-rule="evenodd" d="M14.5564 6.00018C14.5564 3.92912 16.2353 2.25018 18.3064 2.25018C20.3775 2.25018 22.0564 3.92912 22.0564 6.00018C22.0564 8.07125 20.3775 9.75018 18.3064 9.75018H15.3064C14.8922 9.75018 14.5564 9.4144 14.5564 9.00018L14.5564 6.00018ZM18.3064 3.75018C17.0638 3.75018 16.0564 4.75754 16.0564 6.00018L16.0564 8.25018H18.3064C19.549 8.25018 20.5564 7.24282 20.5564 6.00018C20.5564 4.75754 19.549 3.75018 18.3064 3.75018Z" fill="#9E9E9E"/>
<path fill-rule="evenodd" clip-rule="evenodd" d="M2.5564 6.00018C2.5564 3.92912 4.23533 2.25018 6.3064 2.25018C8.37746 2.25018 10.0564 3.92912 10.0564 6.00018V9.00018C10.0564 9.4144 9.72061 9.75018 9.3064 9.75018H6.3064C4.23533 9.75018 2.5564 8.07125 2.5564 6.00018ZM6.3064 3.75018C5.06376 3.75018 4.0564 4.75754 4.0564 6.00018C4.0564 7.24282 5.06376 8.25018 6.3064 8.25018H8.5564V6.00018C8.5564 4.75754 7.54904 3.75018 6.3064 3.75018Z" fill="#9E9E9E"/>
<path d="M148.485 18.5228V8.02277H150.255V9.28556H150.359C150.452 9.09995 150.583 8.90274 150.752 8.69394C150.921 8.48182 151.15 8.30118 151.438 8.15203C151.726 7.99957 152.094 7.92334 152.542 7.92334C153.132 7.92334 153.663 8.07414 154.137 8.37575C154.615 8.67405 154.993 9.11652 155.271 9.70317C155.553 10.2865 155.694 11.0024 155.694 11.8509C155.694 12.6894 155.556 13.402 155.281 13.9887C155.006 14.5753 154.631 15.0228 154.157 15.331C153.683 15.6392 153.146 15.7934 152.547 15.7934C152.109 15.7934 151.746 15.7205 151.458 15.5746C151.169 15.4288 150.937 15.2531 150.762 15.0476C150.589 14.8388 150.455 14.6416 150.359 14.456H150.284V18.5228H148.485ZM150.25 11.841C150.25 12.3348 150.319 12.7673 150.458 13.1385C150.601 13.5098 150.805 13.7998 151.07 14.0086C151.338 14.2141 151.663 14.3168 152.044 14.3168C152.442 14.3168 152.775 14.2107 153.044 13.9986C153.312 13.7832 153.514 13.4899 153.65 13.1187C153.789 12.7441 153.859 12.3182 153.859 11.841C153.859 11.367 153.791 10.9461 153.655 10.5782C153.519 10.2103 153.317 9.92192 153.049 9.71311C152.78 9.50431 152.445 9.3999 152.044 9.3999C151.66 9.3999 151.333 9.50099 151.065 9.70317C150.797 9.90535 150.593 10.1887 150.453 10.5533C150.318 10.9179 150.25 11.3471 150.25 11.841Z" fill="#9E9E9E"/>
<path d="M143.858 15.8083C143.112 15.8083 142.466 15.6442 141.919 15.3161C141.372 14.988 140.948 14.5289 140.646 13.939C140.348 13.349 140.199 12.6596 140.199 11.8708C140.199 11.082 140.348 10.3909 140.646 9.79763C140.948 9.20435 141.372 8.74365 141.919 8.41553C142.466 8.0874 143.112 7.92334 143.858 7.92334C144.604 7.92334 145.25 8.0874 145.797 8.41553C146.344 8.74365 146.766 9.20435 147.065 9.79763C147.366 10.3909 147.517 11.082 147.517 11.8708C147.517 12.6596 147.366 13.349 147.065 13.939C146.766 14.5289 146.344 14.988 145.797 15.3161C145.25 15.6442 144.604 15.8083 143.858 15.8083ZM143.868 14.3665C144.272 14.3665 144.61 14.2555 144.882 14.0334C145.154 13.808 145.356 13.5064 145.489 13.1286C145.625 12.7508 145.693 12.3298 145.693 11.8658C145.693 11.3985 145.625 10.9759 145.489 10.5981C145.356 10.2169 145.154 9.91363 144.882 9.68825C144.61 9.46288 144.272 9.35019 143.868 9.35019C143.454 9.35019 143.109 9.46288 142.834 9.68825C142.562 9.91363 142.358 10.2169 142.222 10.5981C142.09 10.9759 142.024 11.3985 142.024 11.8658C142.024 12.3298 142.09 12.7508 142.222 13.1286C142.358 13.5064 142.562 13.808 142.834 14.0334C143.109 14.2555 143.454 14.3665 143.868 14.3665Z" fill="#9E9E9E"/>
<path d="M133.287 9.49933V8.02277H139.969V9.49933H137.498V15.6591H135.758V9.49933H133.287Z" fill="#9E9E9E"/>
<path d="M128.86 15.8133C128.376 15.8133 127.94 15.7271 127.553 15.5547C127.168 15.3791 126.863 15.1205 126.638 14.7792C126.416 14.4378 126.305 14.0169 126.305 13.5164C126.305 13.0855 126.384 12.7292 126.543 12.4475C126.703 12.1658 126.92 11.9404 127.195 11.7714C127.47 11.6023 127.78 11.4747 128.124 11.3885C128.472 11.2991 128.832 11.2344 129.203 11.1946C129.651 11.1482 130.014 11.1068 130.292 11.0704C130.57 11.0306 130.773 10.9709 130.899 10.8914C131.028 10.8085 131.092 10.6809 131.092 10.5086V10.4787C131.092 10.1042 130.981 9.8142 130.759 9.60871C130.537 9.40322 130.217 9.30047 129.8 9.30047C129.359 9.30047 129.009 9.39659 128.751 9.58882C128.496 9.78106 128.323 10.0081 128.234 10.2699L126.553 10.0313C126.686 9.56728 126.905 9.17949 127.21 8.86794C127.515 8.55307 127.887 8.31775 128.328 8.16198C128.769 8.00289 129.256 7.92334 129.79 7.92334C130.158 7.92334 130.524 7.96643 130.889 8.0526C131.253 8.13878 131.586 8.28129 131.888 8.48016C132.19 8.67571 132.431 8.94252 132.614 9.28058C132.799 9.61865 132.892 10.0412 132.892 10.5483V15.6591H131.162V14.6101H131.102C130.993 14.8223 130.839 15.0211 130.64 15.2067C130.444 15.389 130.198 15.5365 129.899 15.6492C129.604 15.7586 129.258 15.8133 128.86 15.8133ZM129.328 14.4908C129.689 14.4908 130.002 14.4196 130.267 14.277C130.532 14.1312 130.736 13.939 130.879 13.7003C131.025 13.4617 131.097 13.2015 131.097 12.9198V12.0199C131.041 12.0663 130.945 12.1094 130.809 12.1492C130.676 12.189 130.527 12.2238 130.362 12.2536C130.196 12.2834 130.032 12.3099 129.869 12.3331C129.707 12.3563 129.566 12.3762 129.447 12.3928C129.178 12.4293 128.938 12.4889 128.726 12.5718C128.514 12.6546 128.346 12.7706 128.224 12.9198C128.101 13.0656 128.04 13.2545 128.04 13.4866C128.04 13.818 128.161 14.0682 128.403 14.2373C128.645 14.4063 128.953 14.4908 129.328 14.4908Z" fill="#9E9E9E"/>
<path d="M119.422 9.49933V8.02277H126.104V9.49933H123.633V15.6591H121.893V9.49933H119.422Z" fill="#9E9E9E"/>
<path d="M117.838 11.0952V12.5718H113.772V11.0952H117.838ZM114.328 8.02277V15.6591H112.593V8.02277H114.328ZM119.017 8.02277V15.6591H117.286V8.02277H119.017Z" fill="#9E9E9E"/>
<path d="M108.235 15.8083C107.47 15.8083 106.808 15.6492 106.252 15.331C105.698 15.0095 105.272 14.5554 104.974 13.9688C104.676 13.3788 104.526 12.6845 104.526 11.8857C104.526 11.1002 104.676 10.4108 104.974 9.81752C105.275 9.22092 105.696 8.75691 106.237 8.42547C106.777 8.09072 107.412 7.92334 108.141 7.92334C108.611 7.92334 109.055 7.99957 109.473 8.15203C109.894 8.30118 110.265 8.53319 110.587 8.84806C110.912 9.16292 111.167 9.56396 111.352 10.0512C111.538 10.5351 111.631 11.1118 111.631 11.7813V12.3331H105.372V11.1201H109.906C109.902 10.7754 109.828 10.4688 109.682 10.2003C109.536 9.92855 109.332 9.71477 109.07 9.55899C108.812 9.40322 108.51 9.32533 108.166 9.32533C107.798 9.32533 107.475 9.41482 107.196 9.59379C106.918 9.76946 106.701 10.0015 106.545 10.2898C106.392 10.5749 106.314 10.8881 106.311 11.2294V12.2884C106.311 12.7325 106.392 13.1137 106.555 13.4319C106.717 13.7467 106.944 13.9887 107.236 14.1577C107.528 14.3234 107.869 14.4063 108.26 14.4063C108.522 14.4063 108.759 14.3698 108.971 14.2969C109.183 14.2207 109.367 14.1097 109.523 13.9638C109.679 13.818 109.796 13.6374 109.876 13.4219L111.556 13.6108C111.45 14.055 111.248 14.4428 110.95 14.7742C110.655 15.1023 110.277 15.3575 109.816 15.5398C109.355 15.7188 108.828 15.8083 108.235 15.8083Z" fill="#9E9E9E"/>
<path d="M98.6593 13.2231L101.717 8.02277H103.566V15.6591H101.826V10.4539L98.7786 15.6591H96.9242V8.02277H98.6593V13.2231Z" fill="#9E9E9E"/>
<path d="M88.7343 18.5228V8.02277H90.5041V9.28556H90.6085C90.7013 9.09995 90.8323 8.90274 91.0013 8.69394C91.1703 8.48182 91.399 8.30118 91.6874 8.15203C91.9757 7.99957 92.3436 7.92334 92.7911 7.92334C93.381 7.92334 93.913 8.07414 94.3869 8.37575C94.8642 8.67405 95.2421 9.11652 95.5205 9.70317C95.8022 10.2865 95.9431 11.0024 95.9431 11.8509C95.9431 12.6894 95.8055 13.402 95.5304 13.9887C95.2553 14.5753 94.8808 15.0228 94.4068 15.331C93.9329 15.6392 93.3959 15.7934 92.796 15.7934C92.3585 15.7934 91.9956 15.7205 91.7073 15.5746C91.4189 15.4288 91.1869 15.2531 91.0112 15.0476C90.8389 14.8388 90.7047 14.6416 90.6085 14.456H90.534V18.5228H88.7343ZM90.4992 11.841C90.4992 12.3348 90.5688 12.7673 90.708 13.1385C90.8505 13.5098 91.0543 13.7998 91.3195 14.0086C91.5879 14.2141 91.9128 14.3168 92.2939 14.3168C92.6916 14.3168 93.0247 14.2107 93.2932 13.9986C93.5617 13.7832 93.7638 13.4899 93.8997 13.1187C94.0389 12.7441 94.1085 12.3182 94.1085 11.841C94.1085 11.367 94.0406 10.9461 93.9047 10.5782C93.7688 10.2103 93.5666 9.92192 93.2982 9.71311C93.0297 9.50431 92.6949 9.3999 92.2939 9.3999C91.9094 9.3999 91.583 9.50099 91.3145 9.70317C91.046 9.90535 90.8422 10.1887 90.703 10.5533C90.5671 10.9179 90.4992 11.3471 90.4992 11.841Z" fill="#9E9E9E"/>
<path d="M84.1076 15.8083C83.3618 15.8083 82.7155 15.6442 82.1687 15.3161C81.6218 14.988 81.1975 14.5289 80.8959 13.939C80.5976 13.349 80.4485 12.6596 80.4485 11.8708C80.4485 11.082 80.5976 10.3909 80.8959 9.79763C81.1975 9.20435 81.6218 8.74365 82.1687 8.41553C82.7155 8.0874 83.3618 7.92334 84.1076 7.92334C84.8533 7.92334 85.4996 8.0874 86.0465 8.41553C86.5934 8.74365 87.016 9.20435 87.3143 9.79763C87.6159 10.3909 87.7667 11.082 87.7667 11.8708C87.7667 12.6596 87.6159 13.349 87.3143 13.939C87.016 14.5289 86.5934 14.988 86.0465 15.3161C85.4996 15.6442 84.8533 15.8083 84.1076 15.8083ZM84.1175 14.3665C84.5219 14.3665 84.8599 14.2555 85.1317 14.0334C85.4035 13.808 85.6057 13.5064 85.7383 13.1286C85.8741 12.7508 85.9421 12.3298 85.9421 11.8658C85.9421 11.3985 85.8741 10.9759 85.7383 10.5981C85.6057 10.2169 85.4035 9.91363 85.1317 9.68825C84.8599 9.46288 84.5219 9.35019 84.1175 9.35019C83.7032 9.35019 83.3585 9.46288 83.0834 9.68825C82.8116 9.91363 82.6078 10.2169 82.4719 10.5981C82.3393 10.9759 82.2731 11.3985 82.2731 11.8658C82.2731 12.3298 82.3393 12.7508 82.4719 13.1286C82.6078 13.5064 82.8116 13.808 83.0834 14.0334C83.3585 14.2555 83.7032 14.3665 84.1175 14.3665Z" fill="#9E9E9E"/>
<path d="M74.2198 18.2543V5.47729H76.0245V18.2543H74.2198ZM74.2198 15.8083C73.6597 15.8083 73.1476 15.7138 72.6836 15.5249C72.2196 15.336 71.8186 15.0675 71.4805 14.7195C71.1457 14.3715 70.8856 13.9572 70.7 13.4766C70.5177 12.9927 70.4265 12.4574 70.4265 11.8708C70.4265 11.2841 70.5177 10.7488 70.7 10.2649C70.8856 9.78104 71.1457 9.36508 71.4805 9.01707C71.8186 8.66574 72.2196 8.39562 72.6836 8.2067C73.1476 8.01778 73.6597 7.92332 74.2198 7.92332H74.6026V15.8083H74.2198ZM74.2198 14.3566H74.4436V9.37502H74.2198C73.9017 9.37502 73.6199 9.44131 73.3747 9.57389C73.1327 9.70315 72.9289 9.88378 72.7632 10.1158C72.6008 10.3445 72.4765 10.6096 72.3903 10.9112C72.3074 11.2095 72.266 11.5294 72.266 11.8708C72.266 12.3248 72.3406 12.7408 72.4897 13.1186C72.6389 13.4932 72.8576 13.7931 73.146 14.0185C73.4376 14.2439 73.7956 14.3566 74.2198 14.3566ZM76.0245 15.8083H75.6417V7.92332H76.0245C76.5847 7.92332 77.0967 8.01778 77.5607 8.2067C78.0248 8.39562 78.4241 8.66574 78.7589 9.01707C79.097 9.36508 79.3571 9.78104 79.5394 10.2649C79.725 10.7488 79.8178 11.2841 79.8178 11.8708C79.8178 12.4574 79.725 12.9927 79.5394 13.4766C79.3571 13.9572 79.097 14.3715 78.7589 14.7195C78.4241 15.0675 78.0248 15.336 77.5607 15.5249C77.0967 15.7138 76.5847 15.8083 76.0245 15.8083ZM76.0245 14.3566C76.346 14.3566 76.6277 14.2919 76.8697 14.1627C77.1116 14.0334 77.3138 13.8544 77.4762 13.6257C77.642 13.397 77.7662 13.1335 77.8491 12.8352C77.932 12.5336 77.9734 12.2121 77.9734 11.8708C77.9734 11.4167 77.9005 11.0007 77.7546 10.6229C77.6088 10.2451 77.3901 9.94344 77.0984 9.71806C76.81 9.48937 76.4521 9.37502 76.0245 9.37502H75.8008V14.3566H76.0245Z" fill="#9E9E9E"/>
<path d="M66.1281 15.8083C65.3823 15.8083 64.736 15.6442 64.1892 15.3161C63.6423 14.988 63.218 14.5289 62.9164 13.939C62.6181 13.349 62.469 12.6596 62.469 11.8708C62.469 11.082 62.6181 10.3909 62.9164 9.79763C63.218 9.20435 63.6423 8.74365 64.1892 8.41553C64.736 8.0874 65.3823 7.92334 66.1281 7.92334C66.8738 7.92334 67.5201 8.0874 68.067 8.41553C68.6139 8.74365 69.0365 9.20435 69.3348 9.79763C69.6364 10.3909 69.7872 11.082 69.7872 11.8708C69.7872 12.6596 69.6364 13.349 69.3348 13.939C69.0365 14.5289 68.6139 14.988 68.067 15.3161C67.5201 15.6442 66.8738 15.8083 66.1281 15.8083ZM66.138 14.3665C66.5424 14.3665 66.8805 14.2555 67.1522 14.0334C67.424 13.808 67.6262 13.5064 67.7588 13.1286C67.8947 12.7508 67.9626 12.3298 67.9626 11.8658C67.9626 11.3985 67.8947 10.9759 67.7588 10.5981C67.6262 10.2169 67.424 9.91363 67.1522 9.68825C66.8805 9.46288 66.5424 9.35019 66.138 9.35019C65.7237 9.35019 65.379 9.46288 65.1039 9.68825C64.8322 9.91363 64.6283 10.2169 64.4924 10.5981C64.3599 10.9759 64.2936 11.3985 64.2936 11.8658C64.2936 12.3298 64.3599 12.7508 64.4924 13.1286C64.6283 13.5064 64.8322 13.808 65.1039 14.0334C65.379 14.2555 65.7237 14.3665 66.138 14.3665Z" fill="#9E9E9E"/>
<path d="M54.6071 18.5228V8.02277H56.3769V9.28556H56.4813C56.5741 9.09995 56.7051 8.90274 56.8741 8.69394C57.0431 8.48182 57.2718 8.30118 57.5602 8.15203C57.8485 7.99957 58.2164 7.92334 58.6639 7.92334C59.2538 7.92334 59.7858 8.07414 60.2598 8.37575C60.737 8.67405 61.1149 9.11652 61.3933 9.70317C61.675 10.2865 61.8159 11.0024 61.8159 11.8509C61.8159 12.6894 61.6783 13.402 61.4032 13.9887C61.1281 14.5753 60.7536 15.0228 60.2796 15.331C59.8057 15.6392 59.2688 15.7934 58.6688 15.7934C58.2313 15.7934 57.8684 15.7205 57.5801 15.5746C57.2917 15.4288 57.0597 15.2531 56.884 15.0476C56.7117 14.8388 56.5775 14.6416 56.4813 14.456H56.4068V18.5228H54.6071ZM56.372 11.841C56.372 12.3348 56.4416 12.7673 56.5808 13.1385C56.7233 13.5098 56.9271 13.7998 57.1923 14.0086C57.4607 14.2141 57.7856 14.3168 58.1667 14.3168C58.5644 14.3168 58.8975 14.2107 59.166 13.9986C59.4345 13.7832 59.6367 13.4899 59.7725 13.1187C59.9117 12.7441 59.9813 12.3182 59.9813 11.841C59.9813 11.367 59.9134 10.9461 59.7775 10.5782C59.6416 10.2103 59.4394 9.92192 59.171 9.71311C58.9025 9.50431 58.5678 9.3999 58.1667 9.3999C57.7822 9.3999 57.4558 9.50099 57.1873 9.70317C56.9188 9.90535 56.715 10.1887 56.5758 10.5533C56.4399 10.9179 56.372 11.3471 56.372 11.841Z" fill="#9E9E9E"/>
<path d="M53.0405 5.47729V15.6591H51.211V7.00854H46.7564V15.6591H44.9269V5.47729H53.0405Z" fill="#9E9E9E"/>
<path d="M40.3829 5.47729V15.6591H38.5385V5.47729H40.3829Z" fill="#9E9E9E"/>
<path d="M30.2751 15.6591H28.3064L31.8909 5.47729H34.1679L37.7574 15.6591H35.7886L33.0692 7.56536H32.9896L30.2751 15.6591ZM30.3398 11.6669H35.7091V13.1485H30.3398V11.6669Z" fill="#9E9E9E"/>
</svg>
