<svg width="17" height="16" viewBox="0 0 17 16" fill="none" xmlns="http://www.w3.org/2000/svg">
<path d="M8.50001 2.00247C8.12552 2.00805 7.4193 2.02302 7.05294 2.04738C4.26427 2.23275 2.04295 4.48558 1.86017 7.31381C1.8244 7.86728 1.8244 8.44044 1.86017 8.99391C1.92674 10.024 2.3823 10.9777 2.91861 11.7831C3.23002 12.3469 3.02451 13.0506 2.70015 13.6652C2.46628 14.1084 2.34935 14.33 2.44324 14.4901C2.53713 14.6501 2.74685 14.6552 3.16629 14.6654C3.99579 14.6856 4.55513 14.4505 4.99913 14.1231C5.25095 13.9374 5.37685 13.8445 5.46363 13.8339C5.55041 13.8232 5.72119 13.8935 6.06268 14.0342C6.36961 14.1606 6.72599 14.2386 7.05294 14.2603C8.00239 14.3235 8.99569 14.3236 9.94708 14.2603C12.7358 14.075 14.9571 11.8221 15.1399 8.99391C15.161 8.66677 15.1696 8.33275 15.1658 7.99999" stroke="#333944" stroke-linecap="round" stroke-linejoin="round"/>
<path d="M6.16669 10H10.8334M6.16669 6.66667H8.50002" stroke="#333944" stroke-linecap="round" stroke-linejoin="round"/>
<path d="M14.0099 4.84696L15.1667 6.00001M14.6143 3.39049C14.6143 2.25436 13.6933 1.33334 12.5571 1.33334C11.421 1.33334 10.5 2.25436 10.5 3.39049C10.5 4.52662 11.421 5.44763 12.5571 5.44763C13.6933 5.44763 14.6143 4.52662 14.6143 3.39049Z" stroke="#333944" stroke-linecap="round" stroke-linejoin="round"/>
</svg>
