<svg width="12" height="12" viewBox="0 0 12 12" fill="none" xmlns="http://www.w3.org/2000/svg">
<g clip-path="url(#clip0_1_5421)">
<path d="M4.5 7.49995C4.5 6.08574 4.5 5.37863 4.93934 4.93929C5.37868 4.49995 6.08579 4.49995 7.5 4.49995L8 4.49995C9.41421 4.49995 10.1213 4.49995 10.5607 4.93929C11 5.37863 11 6.08574 11 7.49995V7.99995C11 9.41417 11 10.1213 10.5607 10.5606C10.1213 11 9.41421 11 8 11H7.5C6.08579 11 5.37868 11 4.93934 10.5606C4.5 10.1213 4.5 9.41417 4.5 7.99995L4.5 7.49995Z" stroke="#333944" stroke-linecap="round" stroke-linejoin="round"/>
<path d="M8.49994 4.5C8.49877 3.02145 8.47638 2.2556 8.04602 1.73121C7.96291 1.62995 7.87006 1.53709 7.76879 1.45398C7.21561 1 6.39374 1 4.75 1C3.10626 1 2.28439 1 1.73121 1.45398C1.62995 1.53709 1.53709 1.62995 1.45398 1.73121C1 2.28439 1 3.10626 1 4.75C1 6.39374 1 7.21561 1.45398 7.76879C1.53709 7.87005 1.62995 7.96291 1.73121 8.04602C2.2556 8.47638 3.02145 8.49877 4.5 8.49994" stroke="#333944" stroke-linecap="round" stroke-linejoin="round"/>
</g>
<defs>
<clipPath id="clip0_1_5421">
<rect width="12" height="12" fill="white"/>
</clipPath>
</defs>
</svg>
